<svg width="709" height="592" xmlns="http://www.w3.org/2000/svg">
    <!-- Grey border indicating the full original size of the SVG -->
    <!-- <rect x="0" y="0" width="710" height="592" fill="none" stroke="black" stroke-width="3"/> -->
	
	<svg width="80%" height="100%" x="20%" y="0">
		<!-- Background rectangle with rounded corners -->
		<rect x="0" y="0" width="100%" height="100%" fill="#185C37" rx="20" ry="20"/>
		
		<svg width="50%" height="75%" x="50%" y="0">
			<!-- Background rectangle with rounded corners -->
			<rect x="0" y="0" width="100%" height="100%" fill="#107C41" rx="20" ry="20"/>
		</svg>
		
		<svg width="100%" height="50%" x="0" y="0">
			<!-- Background rectangle with rounded corners -->
			<rect x="0" y="0" width="100%" height="100%" fill="#107C41" rx="20" ry="20"/>
		</svg>
		
		<svg width="100%" height="25%" x="0" y="0">
			<!-- Background rectangle with rounded corners -->
			<rect x="0" y="0" width="100%" height="100%" fill="#21A366" rx="20" ry="20"/>
		</svg>
		
		<svg width="50%" height="50%" x="50%" y="0">
			<!-- Background rectangle with rounded corners -->
			<rect x="0" y="0" width="100%" height="100%" fill="#21A366" rx="20" ry="20"/>
		</svg>
		
		<svg width="50%" height="25%" x="50%" y="0">
			<!-- Background rectangle with rounded corners -->
			<rect x="0" y="0" width="100%" height="100%" fill="#33C481" rx="20" ry="20"/>
		</svg>
		
    </svg>
	
	<defs>
		<filter id="f3" x="0" y="0" width="200%" height="200%">
			<feOffset result="offOut" in="SourceAlpha" dx="20" dy="20" />
			<feGaussianBlur result="blurOut" in="offOut" stdDeviation="10" />
			<feBlend in="SourceGraphic" in2="blurOut" mode="normal" />
		</filter>
	</defs>
	
    <!-- Group GP1 with scaling and translation -->
	<svg width="48%" height="60%" x="0" y="95" filter="url(#f3)">
		<g>
			
			<!-- Background rectangle with rounded corners -->
			<rect x="0" y="0" width="100%" height="100%" fill="#107C41" rx="20" ry="20" />
			<!-- Lambda symbol -->
			<text x="45%" y="60%" dominant-baseline="middle" text-anchor="middle" font-family="Arial" font-size="300" fill="white">λ</text>
		</g>
    </svg>
	
	
</svg>
